:FULLY-SPECIFIED
:FORCE-ALL-JOINTS-BE-3DOF
:DEGREES
306
root -0.0186063 15.3761 -36.0729 8.92835 35.2986 -3.30203
lfemur -33.3328 30.105 -15.1099
ltibia 74.0788 0 0
lfoot -25.8683 29.338 0.00856294
ltoes 11.8606 0 0
rfemur -33.0737 -18.8805 15.3711
rtibia 57.2343 0 0
rfoot -18.82 -16.185 0.941943
rtoes -26.3372 0 0
lowerback 13.3004 1.79947 3.73855
upperback -3.55356 3.44385 2.99953
thorax -11.2797 1.50255 0.38564
lowerneck -5.21708 8.74836 3.92947
upperneck 5.04796 12.0231 -8.40795
head 3.27428 5.78077 -2.56076
lclavicle -4.84296e-14 -2.04674e-14 -4.31162e-31
lhumerus -17.9813 -24.4109 74.0398
lradius 111.954 0 0
lwrist 32.299 0 0
lhand -18.9056 52.5182 0.0131686
lfingers 7.12502 0 0
lthumb 7.3962 82.3689 0.0125691
rclavicle -4.84296e-14 -2.04674e-14 -4.31162e-31
rhumerus -39.9281 42.2844 -91.6072
rradius 98.1103 0 0
rwrist -40.5904 0 0
rhand 39.0295 -20.2646 0.514516
rfingers 7.12502 0 0
rthumb 61.2342 -29.084 1.18254
307
root 0.112552 15.3605 -36.0234 8.88053 35.7285 -3.13252
lfemur -32.8397 29.6536 -14.9584
ltibia 73.6386 0 0
lfoot -25.8906 29.1572 0.00690476
ltoes 11.4691 0 0
rfemur -33.1273 -18.5766 15.1945
rtibia 56.9414 0 0
rfoot -18.4477 -15.8332 1.00499
rtoes -25.757 0 0
lowerback 13.2852 1.79285 3.55956
upperback -3.5302 3.39998 2.97515
thorax -11.2468 1.49263 0.470875
lowerneck -5.24432 8.53771 3.77689
upperneck 5.11782 11.7446 -8.22902
head 3.28708 5.64244 -2.49714
lclavicle -4.75648e-14 -2.02098e-14 -5.43297e-31
lhumerus -18.3281 -24.4863 74.5793
lradius 111.287 0 0
lwrist 32.156 0 0
lhand -18.9954 52.2604 0.0271131
lfingers 7.12502 0 0
lthumb 7.30951 82.1127 0.0259527
rclavicle -4.75648e-14 -2.02098e-14 -5.43297e-31
rhumerus -38.8057 41.9196 -90.9708
rradius 97.2082 0 0
rwrist -39.8584 0 0
rhand 38.1806 -20.4168 0.576495
rfingers 7.12502 0 0
rthumb 60.4575 -29.5572 1.3702
308
root 0.243711 15.3449 -35.9739 8.8322 36.256 -2.93423
lfemur -32.2806 29.147 -14.7966
ltibia 73.1472 0 0
lfoot -25.9176 28.9705 0.00518008
ltoes 11.0328 0 0
rfemur -33.1984 -18.2328 14.9911
rtibia 56.6055 0 0
rfoot -18.007 -15.4398 1.0775
rtoes -25.0982 0 0
lowerback 13.2722 1.78478 3.35624
upperback -3.50304 3.34983 2.94816
thorax -11.2111 1.48113 0.568444
lowerneck -5.27425 8.30139 3.60658
upperneck 5.1935 11.432 -8.03222
head 3.30096 5.4873 -2.42695
lclavicle -4.66069e-14 -1.99286e-14 -6.60628e-31
lhumerus -18.7216 -24.5883 75.1921
lradius 110.584 0 0
lwrist 32.0408 0 0
lhand -19.0922 51.9789 0.0414049
lfingers 7.12502 0 0
lthumb 7.21604 81.8331 0.0396691
rclavicle -4.66069e-14 -1.99286e-14 -6.60628e-31
rhumerus -37.527 41.5215 -90.2632
rradius 96.2161 0 0
rwrist -39.0445 0 0
rhand 37.2427 -20.5905 0.643889
rfingers 7.12502 0 0
rthumb 59.5982 -30.0895 1.57112
309
root 0.374869 15.3292 -35.9245 8.78491 36.8951 -2.70345
lfemur -31.6505 28.5815 -14.6262
ltibia 72.6014 0 0
lfoot -25.9499 28.7802 0.00339734
ltoes 10.5489 0 0
rfemur -33.29 -17.8462 14.7581
rtibia 56.2226 0 0
rfoot -17.4894 -15.0022 1.15978
rtoes -24.3541 0 0
lowerback 13.2622 1.77508 3.12651
upperback -3.47165 3.2928 2.91841
thorax -11.1726 1.46787 0.679509
lowerneck -5.30687 8.03765 3.41749
upperneck 5.27484 11.0831 -7.81703
head 3.31588 5.31422 -2.34991
lclavicle -4.55515e-14 -1.96234e-14 -7.8186e-31
lhumerus -19.1667 -24.721 75.8851
lradius 109.849 0 0
lwrist 31.9628 0 0
lhand -19.1959 51.6734 0.0558425
lfingers 7.12502 0 0
lthumb 7.11594 81.5296 0.0535248
rclavicle -4.55515e-14 -1.96234e-14 -7.8186e-31
rhumerus -36.079 41.0879 -89.4818
rradius 95.1309 0 0
rwrist -38.1444 0 0
rhand 36.2121 -20.7876 0.716365
rfingers 7.12502 0 0
rthumb 58.6526 -30.6854 1.78382
